:SAMPLES-PER-SECOND 24
:FULLY-SPECIFIED
:DEGREES
565
root  1.26058 40.156 44.6569 15.366 26.0048 3.12103
RightUpLeg  -21.0879 -1.01557 -4.66898
RightLeg  13.3824 -10.7958 -3.74367
RightFoot  -4.45905 0.182811 -3.54151
RightToes  -2.08645e-008 3.77894e-005 6.81332e-007
Spine  6.25839 -3.74093 2.45352
Spine1  2.05934 -4.49437 3.55874
HEad  -37.9377 44.3705 -30.0921
LeftShoulder1  7.5638 -13.4786 -38.4139
LeftArm  17.6741 -2.51825 -34.6357
LeftForeArm  113.182 -80.7568 -94.2285
LeftHand  -0.409529 -4.26235 5.20548
RightShoulder  3.65041 6.44619 30.7882
RightArm  -2.65107 -12.5027 34.6409
RightForeArm  14.9397 29.6406 5.62399
RightHand  -1.16495 8.19883 -10.2802
LeftUpLeg  -8.15287 3.56179 9.38427
LeftLeg  8.56478 6.44248 2.26445
LeftFoot  3.98373 1.51525 -11.4101
LeftToes  1.24767e-006 1.47042e-008 1.32732e-009
566
root  1.30452 40.2341 44.5761 15.2466 26.9401 3.0332
RightUpLeg  -20.0995 -1.90124 -4.50638
RightLeg  11.7158 -10.8023 -3.43245
RightFoot  -3.81876 0.179775 -3.12774
RightToes  -2.08645e-008 3.77894e-005 6.81332e-007
Spine  6.65851 -3.78034 2.69282
Spine1  2.12153 -4.58511 3.80711
HEad  -38.2186 44.7191 -30.211
LeftShoulder1  7.53395 -13.4343 -38.3568
LeftArm  16.9889 -1.00769 -34.1462
LeftForeArm  115.879 -80.6951 -97.2388
LeftHand  -0.42242 -4.44854 5.27121
RightShoulder  3.6351 6.45075 30.6151
RightArm  -2.34581 -13.4782 32.7865
RightForeArm  14.7539 30.1793 5.76381
RightHand  -1.12966 8.12952 -10.0285
LeftUpLeg  -8.42225 6.11032 8.2587
LeftLeg  10.0334 12.6616 2.4121
LeftFoot  3.49173 1.23475 -9.63297
LeftToes  1.24767e-006 1.47042e-008 1.32732e-009
567
root  1.40625 40.2788 44.4581 14.6963 28.1584 2.638
RightUpLeg  -18.9467 -2.6878 -4.30202
RightLeg  10.4268 -11.2512 -3.0325
RightFoot  -3.20918 0.197579 -3.08291
RightToes  -2.08645e-008 3.77894e-005 6.81332e-007
Spine  7.04407 -3.66649 3.28378
Spine1  2.38621 -4.44906 3.76853
HEad  -37.9179 44.2411 -29.6511
LeftShoulder1  7.39524 -13.3096 -37.8812
LeftArm  16.2821 0.586845 -34.1158
LeftForeArm  117.826 -80.6072 -99.7956
LeftHand  -0.420939 -4.51411 5.22245
RightShoulder  3.65705 6.49902 30.6585
RightArm  -1.69406 -14.0792 30.9788
RightForeArm  14.6728 30.3454 5.8086
RightHand  -1.1309 7.66656 -10.3744
LeftUpLeg  -8.73632 9.83518 7.09803
LeftLeg  12.5708 16.2229 3.3419
LeftFoot  2.52439 0.922767 -7.70841
LeftToes  1.24767e-006 1.47042e-008 1.32732e-009
568
root  1.53907 40.2717 44.3074 14.1123 29.7948 2.16992
RightUpLeg  -18.1535 -3.44077 -4.22037
RightLeg  10.0501 -12.1301 -2.7012
RightFoot  -3.10132 0.180952 -2.79978
RightToes  -2.08645e-008 3.77894e-005 6.81332e-007
Spine  7.18963 -3.48979 3.8246
Spine1  2.79469 -4.22667 3.58986
HEad  -37.42 43.3137 -28.8379
LeftShoulder1  7.29116 -13.2437 -37.4489
LeftArm  15.5464 2.53978 -34.0385
LeftForeArm  116.757 -80.5633 -99.7246
LeftHand  -0.423611 -4.02525 5.49704
RightShoulder  3.65424 6.49482 30.6456
RightArm  -0.48327 -14.0837 30.1028
RightForeArm  14.7491 30.378 5.81198
RightHand  -1.17944 7.09184 -11.27
LeftUpLeg  -9.58439 14.8326 5.79212
LeftLeg  15.6243 16.5312 4.74435
LeftFoot  1.52153 0.612666 -5.5152
LeftToes  1.24767e-006 1.47042e-008 1.32732e-009
569
root  1.68693 40.1951 44.0941 13.5056 32.278 1.69531
RightUpLeg  -17.9997 -4.52892 -4.15796
RightLeg  11.2223 -13.4181 -2.78373
RightFoot  -3.50695 0.107757 -1.91711
RightToes  -2.08645e-008 3.77894e-005 6.81332e-007
Spine  7.75472 -3.47882 3.91966
Spine1  2.66926 -4.28783 4.0203
HEad  -37.5999 42.2042 -28.2909
LeftShoulder1  7.26696 -13.2464 -37.3021
LeftArm  14.4328 5.75776 -33.8026
LeftForeArm  115.649 -80.5247 -99.5558
LeftHand  -0.446148 -3.78865 5.90636
RightShoulder  3.64841 6.48214 30.6337
RightArm  0.991225 -13.6139 30.4313
RightForeArm  15.6362 31.3523 5.99954
RightHand  -1.24461 6.82893 -12.1107
LeftUpLeg  -11.245 18.9521 4.62749
LeftLeg  19.3517 15.9719 6.41747
LeftFoot  -0.182322 0.433218 -4.4298
LeftToes  1.24767e-006 1.47042e-008 1.32732e-009
570
root  1.86883 40.0829 43.8604 12.5063 35.8751 1.02002
RightUpLeg  -17.7674 -6.50531 -3.85231
RightLeg  13.1868 -15.0888 -3.28524
RightFoot  -3.99249 0.0751617 -1.60394
RightToes  -2.08645e-008 3.77894e-005 6.81332e-007
Spine  8.43066 -3.6295 4.01626
Spine1  2.56954 -4.55038 4.59953
HEad  -38.3331 40.5869 -28.0049
LeftShoulder1  7.25908 -13.2478 -37.2537
LeftArm  12.7966 10.3387 -33.9069
LeftForeArm  115.964 -80.4512 -100.737
LeftHand  -0.461625 -3.98774 5.98654
RightShoulder  3.68463 6.52476 30.8422
RightArm  2.0643 -13.2822 32.0681
RightForeArm  17.4028 33.9151 6.54885
RightHand  -1.30855 6.79769 -12.7424
LeftUpLeg  -13.3508 22.0218 4.04875
LeftLeg  23.5418 16.6447 8.111
LeftFoot  -1.81522 0.307343 -3.55173
LeftToes  1.24767e-006 1.47042e-008 1.32732e-009
571
root  2.10167 39.9776 43.6436 11.1416 40.7178 -0.102417
RightUpLeg  -16.9595 -9.52505 -3.23319
RightLeg  14.717 -16.7399 -3.80381
RightFoot  -4.47441 0.0234172 -0.797162
RightToes  -2.08645e-008 3.77894e-005 6.81332e-007
Spine  8.1097 -3.58737 4.54759
Spine1  3.27428 -4.63029 4.96529
HEad  -39.1296 38.836 -28.1823
LeftShoulder1  7.475 -13.4355 -38.019
LeftArm  10.8002 15.8436 -33.7427
LeftForeArm  119.719 -80.2376 -105.326
LeftHand  -0.441286 -3.94088 5.76044
RightShoulder  3.75412 6.58351 31.3227
RightArm  2.39722 -13.5127 34.7383
RightForeArm  19.6586 37.775 7.47602
RightHand  -1.28303 6.7059 -12.5927
LeftUpLeg  -15.9814 26.8211 3.44211
LeftLeg  26.5129 16.801 9.23514
LeftFoot  -2.47789 0.245419 -2.97539
LeftToes  1.24767e-006 1.47042e-008 1.32732e-009
572
root  2.4324 39.876 43.3964 9.29053 47.3799 -1.92664
RightUpLeg  -15.44 -13.0059 -2.59928
RightLeg  15.6834 -19.5045 -4.22873
RightFoot  -4.77873 -0.100038 1.21625
RightToes  -2.08645e-008 3.77894e-005 6.81332e-007
Spine  6.98207 -3.27502 5.63288
Spine1  3.8965 -4.533 5.6576
HEad  -39.9663 38.1606 -28.838
LeftShoulder1  7.97209 -13.8319 -39.7932
LeftArm  9.17579 21.8475 -32.8628
LeftForeArm  128.576 -79.6162 -114.772
LeftHand  -0.419009 -3.72086 5.60181
RightShoulder  3.85246 6.65028 32.0521
RightArm  2.41326 -14.4917 37.4126
RightForeArm  22.3799 42.6176 8.80791
RightHand  -1.17317 6.54768 -11.6959
LeftUpLeg  -19.4667 32.0884 2.04603
LeftLeg  27.2067 15.4183 8.77138
LeftFoot  -3.29219 0.371615 -5.01907
LeftToes  1.24767e-006 1.47042e-008 1.32732e-009
573
root  2.92739 39.7974 43.1078 6.06592 56.1772 -4.87042
RightUpLeg  -12.3609 -15.6414 -2.51415
RightLeg  15.9309 -25.4889 -4.56862
RightFoot  -4.51151 -0.168034 2.29413
RightToes  -2.08645e-008 3.77894e-005 6.81332e-007
Spine  5.48466 -2.78177 7.37649
Spine1  3.97965 -4.17599 5.97164
HEad  -40.6864 38.8634 -29.3541
LeftShoulder1  8.24894 -14.0259 -40.8069
LeftArm  8.62202 26.9741 -32.3799
LeftForeArm  136.312 -78.8042 -122.761
LeftHand  -0.400089 -3.86393 5.28848
RightShoulder  3.95746 6.72148 32.8173
RightArm  2.83092 -16.5505 39.348
RightForeArm  25.4126 48.6157 10.8353
RightHand  -1.10882 6.29273 -11.3071
LeftUpLeg  -23.7862 35.9615 -0.869104
LeftLeg  26.5904 14.1935 7.92902
LeftFoot  -3.9489 0.453248 -6.64397
LeftToes  1.24767e-006 1.47042e-008 1.32732e-009
574
root  3.58795 39.6709 42.7363 0.296875 66.3436 -10.0855
RightUpLeg  -8.89591 -21.0327 -2.48834
RightLeg  17.1501 -29.0914 -5.65406
RightFoot  -4.39607 -0.34781 5.2566
RightToes  -2.08645e-008 3.77894e-005 6.81332e-007
Spine  3.17784 -1.79262 9.74468
Spine1  4.2216 -3.12342 4.96405
HEad  -41.0964 40.3704 -29.7807
LeftShoulder1  8.05746 -13.8499 -40.2137
LeftArm  9.02017 29.7081 -32.4745
LeftForeArm  140.192 -78.2697 -126.71
LeftHand  -0.353963 -4.14414 4.58798
RightShoulder  3.98696 6.72091 33.1084
RightArm  3.78826 -19.3603 40.2423
RightForeArm  28.865 55.3011 13.8317
RightHand  -1.04825 5.9401 -11.0256
LeftUpLeg  -27.7062 36.0561 -4.57952
LeftLeg  26.4156 17.4679 9.52846
LeftFoot  -4.16141 0.204661 -2.90346
LeftToes  1.24767e-006 1.47042e-008 1.32732e-009
575
root  4.38025 39.3855 42.1692 -11.2449 76.8328 -20.9452
RightUpLeg  -8.13496 -35.398 -2.45518
RightLeg  22.5937 -22.5489 -10.0294
RightFoot  -4.18075 -0.782221 12.0037
RightToes  -2.08645e-008 3.77894e-005 6.81332e-007
Spine  0.435524 -0.202139 11.9339
Spine1  4.51912 -1.36666 3.14892
HEad  -41.7365 42.1879 -31.0722
LeftShoulder1  7.81796 -13.6416 -39.4251
LeftArm  10.2599 29.6108 -31.4551
LeftForeArm  143.914 -77.5431 -130.948
LeftHand  -0.315017 -4.01436 4.1617
RightShoulder  3.92712 6.65893 32.7574
RightArm  5.4521 -22.0073 39.1892
RightForeArm  32.7173 61.3246 17.6283
RightHand  -0.89108 5.73637 -9.58899
LeftUpLeg  -27.9361 28.9156 -5.95223
LeftLeg  27.1661 23.2461 12.7096
LeftFoot  -5.71927 -0.0513288 1.74586
LeftToes  1.24767e-006 1.47042e-008 1.32732e-009
